<svg fill="none" height="256" viewBox="0 0 24 24" width="256" xmlns="http://www.w3.org/2000/svg" id="fi_18976905">
	<path d="m12 1.25c-5.93706 0-10.75 4.81294-10.75 10.75 0 5.9371 4.81294 10.75 10.75 10.75 5.9371 0 10.75-4.8129 10.75-10.75 0-5.93706-4.8129-10.75-10.75-10.75z" fill="#5e94ff"></path>
	<path d="m13.0036 6.78698c-.6026-.42178-1.4046-.42179-2.0071 0l-3.57352 2.50142c-.73515.51461-1.17298 1.3555-1.17298 2.2529v3.4587c0 1.5188 1.23122 2.75 2.75 2.75h6c1.5188 0 2.75-1.2312 2.75-2.75v-3.4587c0-.8974-.4378-1.73829-1.173-2.2529z" fill="#eceff1"></path>
	<g clip-rule="evenodd" fill="#000" fill-rule="evenodd">
		<path d="m12.1434 8.01583c-.0861-.06025-.2007-.06025-.2868 0l-3.57343 2.50147c-.33416.2339-.53317.6161-.53317 1.024v3.4587c0 .6903.55964 1.25 1.25 1.25h6c.6904 0 1.25-.5597 1.25-1.25v-3.4587c0-.4079-.199-.7901-.5332-1.024zm-1.1469-1.22885c.6025-.42179 1.4045-.42178 2.0071 0l3.5734 2.50142c.7352.51461 1.173 1.3555 1.173 2.2529v3.4587c0 1.5188-1.2312 2.75-2.75 2.75h-6c-1.51878 0-2.75-1.2312-2.75-2.75v-3.4587c0-.8974.43783-1.73829 1.17298-2.2529z"></path>
		<path d="m12 2.75c-5.10863 0-9.25 4.14137-9.25 9.25 0 5.1086 4.14137 9.25 9.25 9.25 5.1086 0 9.25-4.1414 9.25-9.25 0-.4142.3358-.75.75-.75s.75.3358.75.75c0 5.9371-4.8129 10.75-10.75 10.75-5.93706 0-10.75-4.8129-10.75-10.75 0-5.93706 4.81294-10.75 10.75-10.75 4.4094 0 8.197 2.65459 9.8552 6.44972.1658.37957-.0074.82171-.387.98754-.3796.16584-.8217-.00742-.9876-.38698-1.428-3.26849-4.6887-5.55028-8.4806-5.55028z"></path>
	</g>
</svg>